# xmcd
#
# Track frame offsets: 
#        150
#        18510
#        36972
#        57710
#        71126
#        89746
#        110561
#        130291
#        150928
#        175256
#        195071
#        212958
#        232443
#
# Disc length: 3335 seconds
#
# Revision: 0
# Processed by: cddbd v1.5.2PL0 Copyright (c) Steve Scherf et al.
# Submitted via: ExactAudioCopy v0.99pb3
#
DISCID=c10d050d
DTITLE=Joni Lightning - Joni Lightning
DYEAR=2004
DGENRE=Mushroom
TTITLE0=Calling In My
TTITLE1=Love You Too Hard
TTITLE2=Eyes O' Gold
TTITLE3=Abbey Road
TTITLE4=Makin Mistakes
TTITLE5=Say It Proud
TTITLE6=Here's Your Chance
TTITLE7=Leave You Now
TTITLE8=It's Like Country
TTITLE9=Broken Bottles
TTITLE10=Hey Lover
TTITLE11=Peaceful Life
TTITLE12=Won't Relate
EXTD=
EXTT0=
EXTT1=
EXTT2=
EXTT3=
EXTT4=
EXTT5=
EXTT6=
EXTT7=
EXTT8=
EXTT9=
EXTT10=
EXTT11=
EXTT12=
PLAYORDER=
